<?xml version="1.0" encoding="utf-8"?>
<!-- Generator: Adobe Illustrator 21.0.2, SVG Export Plug-In . SVG Version: 6.00 Build 0)  -->
<svg version="1.1" id="Calque_1" xmlns="http://www.w3.org/2000/svg" xmlns:xlink="http://www.w3.org/1999/xlink" x="0px" y="0px"
	 viewBox="0 0 61.9 46.8" style="enable-background:new 0 0 61.9 46.8;" xml:space="preserve">
<style type="text/css">
	.st0{fill:#ED6C20;}
</style>
<g>
	<path class="st0" d="M47.9,31.5c0,1-0.8,1.8-1.8,1.8c-1,0-1.8-0.8-1.8-1.8c0-1,0.8-1.8,1.8-1.8C47.1,29.6,47.9,30.5,47.9,31.5
		L47.9,31.5z M42.5,31.5c0,2,1.6,3.6,3.6,3.6s3.6-1.6,3.6-3.6s-1.6-3.6-3.6-3.6C44.1,27.8,42.5,29.5,42.5,31.5L42.5,31.5z"/>
	<path class="st0" d="M34.2,31.5c0,2.2-1.5,4-3.2,4c-1.8,0-3.2-1.8-3.2-4c0-2.2,1.5-4,3.2-4C32.7,27.5,34.2,29.3,34.2,31.5
		L34.2,31.5z M25.9,31.5c0,3.2,2.3,5.9,5.1,5.9c2.8,0,5.1-2.6,5.1-5.9c0-3.2-2.3-5.9-5.1-5.9C28.2,25.7,25.9,28.3,25.9,31.5
		L25.9,31.5z"/>
	<g>
		<path class="st0" d="M15.5,33.3c-1,0-1.8-0.8-1.8-1.8c0-1,0.8-1.8,1.8-1.8c1,0,1.8,0.8,1.8,1.8C17.3,32.5,16.5,33.3,15.5,33.3
			L15.5,33.3z M15.5,27.8c-2,0-3.6,1.6-3.6,3.6c0,2,1.6,3.6,3.6,3.6s3.6-1.6,3.6-3.6S17.5,27.8,15.5,27.8L15.5,27.8z"/>
		<path class="st0" d="M51.1,19.7c-1.9,2.3-2.7,2.8-4,2.7c-1.1,0-1.7-0.5-2.3-1c-1.4-1.1-3.2-2.6-5.2-4.8c2-2.3,3.7-4.7,5.1-7.3
			c0.5-0.9,0.3-2-0.4-2.7c-1.9-1.8-0.5-5,2.1-4.9c2.5,0.2,3.6,3.4,1.5,5c-0.7,0.6-0.9,1.6-0.5,2.4c1.5,2.8,3.4,5.5,5.6,7.9
			C52.3,18.1,51.7,18.9,51.1,19.7L51.1,19.7z M59.7,8.6c-0.7,1.5-1.1,2.9-1.1,5.2l0,5.6c0,0.5,0.4,0.9,0.9,0.9
			c0.5,0,0.9-0.4,0.9-0.9l0-5.6c0-4.1,1.5-4.1,1.5-7.1c0-2.6-1.4-4.6-3.2-4.6c-2.4,0-3.4,3.2-3.1,5.6c0.2,1.5,1.1,2.4,0.5,4.2
			c-0.6,1.1-1.3,2.4-2.1,3.7c-2-2.2-3.7-4.7-5.1-7.3c0,0,0-0.1,0-0.1c3.4-2.6,1.7-8-2.5-8.3c-4.3-0.3-6.6,5-3.5,8
			c0.1,0.1,0.2,0.3,0.1,0.5c-1.3,2.4-2.9,4.7-4.7,6.8c-1.6-1.9-3.2-4.2-4.6-6.8c0-0.1,0-0.1,0.1-0.2c2.3-1.7,2.4-5,0.5-7
			c-1.8-1.8-4.7-1.8-6.6,0c-2,2-1.8,5.3,0.5,7c0,0,0.1,0.1,0,0.1c-1.3,2.4-2.8,4.7-4.6,6.9c-1.9-2.2-3.5-4.6-4.9-7.1
			C21.9,5.5,20.2,0.3,16,0C11.5-0.3,9.3,5.6,13,8.4c-1.4,2.6-3.1,5-5.1,7.3C7,14.4,6.3,13.1,5.8,12c-0.3-0.9-0.3-1.9,0.1-2.8
			c1.2-2.9-0.1-7-2.7-7c-2.4,0-3.5,3.4-3,5.8l0,0.1c0.3,1.9,1.4,2.3,1.4,5.8l0,27.8C0.6,42.1,0,43,0,44.1c0,1.5,1.1,2.7,2.5,2.7
			l5.2,0c0.5,0,0.9-0.4,0.9-0.9c0-0.5-0.4-0.9-0.9-0.9l-5.2,0c-0.4,0-0.7-0.4-0.7-0.9c0-0.5,0.3-0.9,0.7-0.9l56.8,0
			c0.4,0,0.7,0.4,0.7,0.9c0,0.5-0.3,0.9-0.7,0.9l-47.4,0c-0.5,0-0.9,0.4-0.9,0.9c0,0.5,0.4,0.9,0.9,0.9l47.4,0
			c1.4,0,2.5-1.2,2.5-2.7c0-1.1-0.6-2-1.5-2.4l0-17.9c0-0.5-0.4-0.9-0.9-0.9c-0.5,0-0.9,0.4-0.9,0.9l0,17.7l-55.3,0l0-27.5
			c0-4.3-1.5-4.7-1.5-7C1.8,5.1,2.6,4,3.1,4C4,4,5,6.2,4.2,8.5c-0.5,1.3-0.6,2.8-0.1,4.1c0.2,0.4,2.3,4.1,3,5
			c1.3,1.9,2.8,3.8,4.4,5.3c1.7,1.5,4.3,1.8,6.2,0.3c0.2-0.2,0.4-0.3,0.7-0.5c0.4-0.3,0.5-0.9,0.2-1.3c-0.3-0.4-0.9-0.5-1.3-0.2
			c-0.8,0.6-1.3,1.1-2.4,1.1c-0.9,0-1.6-0.3-2.2-0.8c-1.4-1.3-2.7-2.8-3.8-4.4c2.2-2.5,4.1-5.2,5.7-8.1c0.4-0.7,0.2-1.7-0.5-2.2
			c-2.3-1.6-1-5.3,1.8-5.1c2.5,0.2,3.6,3.4,1.6,5c-0.7,0.5-0.8,1.5-0.4,2.3c1.4,2.7,3.2,5.3,5.3,7.6c-0.6,0.7-1.3,1.3-1.9,2
			c-0.4,0.3-0.4,0.9,0,1.3c0.3,0.4,0.9,0.4,1.3,0c3.2-3.1,6-6.6,8.1-10.7c0.4-0.8,0.2-1.8-0.6-2.4C27,5.2,28.3,1.8,31,1.8
			c2.6-0.1,3.9,3.4,1.7,5.1c-0.8,0.6-1,1.6-0.6,2.5c3,5.6,7.3,10.4,12,13.9c1.1,0.8,2.6,1.2,4,0.8c1.4-0.3,2.2-1.1,3.4-2.4
			c2.8-2.9,5.9-8.2,6.2-9.1c0.8-2.2-0.1-3.9-0.3-4.6C57,5.9,58,4,58.7,4C59.7,4,60.6,6.7,59.7,8.6L59.7,8.6z"/>
	</g>
</g>
</svg>
