<?xml version="1.0" encoding="utf-8"?>
<!-- Generator: Adobe Illustrator 21.0.2, SVG Export Plug-In . SVG Version: 6.00 Build 0)  -->
<svg version="1.1" id="Calque_1" xmlns="http://www.w3.org/2000/svg" xmlns:xlink="http://www.w3.org/1999/xlink" x="0px" y="0px"
	 viewBox="0 0 50 50" style="enable-background:new 0 0 50 50;" xml:space="preserve">
<style type="text/css">
	.st0{fill:#FFFFFF;}
</style>
<g>
	<g>
		<path class="st0" d="M17.5,27.3h7.8c-1.4,3.9-5.1,6.7-9.4,6.6c-5.3,0-9.6-4.3-9.8-9.5c-0.2-5.7,4.3-10.3,9.9-10.3
			c2.6,0,4.9,1,6.7,2.6c0.4,0.4,1.1,0.4,1.5,0l2.9-2.7c0.4-0.4,0.5-1.1,0-1.6C24.2,9.7,20.4,8.1,16.3,8C7.5,7.8,0.1,15.1,0,23.9
			C-0.1,32.8,7.1,40,16,40c8.5,0,15.5-6.7,16-15.1c0-0.1,0-3.7,0-3.7H17.5c-0.6,0-1.1,0.5-1.1,1.1v3.9C16.5,26.8,17,27.3,17.5,27.3z
			"/>
		<path class="st0" d="M45.2,21.6v-3.8c0-0.5-0.4-0.9-0.9-0.9h-3.2c-0.5,0-0.9,0.4-0.9,0.9v3.8h-3.8c-0.5,0-0.9,0.4-0.9,0.9v3.2
			c0,0.5,0.4,0.9,0.9,0.9h3.8v3.8c0,0.5,0.4,0.9,0.9,0.9h3.2c0.5,0,0.9-0.4,0.9-0.9v-3.8h3.8c0.5,0,0.9-0.4,0.9-0.9v-3.2
			c0-0.5-0.4-0.9-0.9-0.9L45.2,21.6L45.2,21.6z"/>
	</g>
	<g>
	</g>
	<g>
	</g>
	<g>
	</g>
	<g>
	</g>
	<g>
	</g>
	<g>
	</g>
	<g>
	</g>
	<g>
	</g>
	<g>
	</g>
	<g>
	</g>
	<g>
	</g>
	<g>
	</g>
	<g>
	</g>
	<g>
	</g>
	<g>
	</g>
</g>
</svg>
