<?xml version="1.0" encoding="utf-8"?>
<!-- Generator: Adobe Illustrator 21.0.2, SVG Export Plug-In . SVG Version: 6.00 Build 0)  -->
<svg version="1.1" id="Calque_1" xmlns="http://www.w3.org/2000/svg" xmlns:xlink="http://www.w3.org/1999/xlink" x="0px" y="0px"
	 viewBox="0 0 50 50" style="enable-background:new 0 0 50 50;" xml:space="preserve">
<style type="text/css">
	.st0{fill:#FFFFFF;}
</style>
<g>
	<g>
		<path class="st0" d="M38.2,0l-6.5,0c-7.3,0-12,4.8-12,12.3V18h-6.5c-0.6,0-1,0.5-1,1v8.2c0,0.6,0.5,1,1,1h6.5V49c0,0.6,0.5,1,1,1
			h8.5c0.6,0,1-0.5,1-1V28.2h7.6c0.6,0,1-0.5,1-1l0-8.2c0-0.3-0.1-0.5-0.3-0.7c-0.2-0.2-0.5-0.3-0.7-0.3h-7.6v-4.8
			c0-2.3,0.6-3.5,3.6-3.5l4.4,0c0.6,0,1-0.5,1-1V1C39.2,0.5,38.8,0,38.2,0z"/>
</g>
</svg>
