<?xml version="1.0" encoding="utf-8"?>
<!-- Generator: Adobe Illustrator 22.0.0, SVG Export Plug-In . SVG Version: 6.00 Build 0)  -->
<svg version="1.1" id="Calque_2_1_" xmlns="http://www.w3.org/2000/svg" xmlns:xlink="http://www.w3.org/1999/xlink" x="0px"
	 y="0px" viewBox="0 0 340 216" style="enable-background:new 0 0 340 216;" xml:space="preserve">
<rect x="-151" y="54.4" style="fill:none;" width="619" height="410.7"/>
<text transform="matrix(1 0 0 1 5.9979 141.113)" style="font-family:'FranklinGothic-Heavy'; font-size:130px;">KING</text>
<text transform="matrix(1 0 0 1 5.8979 211.113)" style="font-family:'FranklinGothic-Heavy'; font-size:100px;">STOCK </text>
<rect x="-123" y="139.8" style="fill:none;" width="619" height="87"/>
<g>
	<path style="fill:#FABC50;" d="M281.4,12.6c0.2,0.4,0.1,0.9-0.3,1.2c-3.8,2.8-7.9,5.3-11.4,6.7c0.4,2.7,1,5.4,2,7.9
		c0.8,2.1,3.1,3.4,5.4,2.9c2.5-0.5,6-1.4,10-3.1c-1-3.4-1.5-8-1.7-12.4c0-0.5,0.3-1,0.8-1.1c4-1,4.7-6.3,1.1-8.3
		C283.6,4.3,279.2,8.7,281.4,12.6L281.4,12.6z"/>
	<path style="fill:#F9AF3E;" d="M281.6,22.5c1.4-0.8,2.8-1.6,4.3-2.5c-0.1-1.3-0.2-2.7-0.3-4c0-0.5,0.3-1,0.8-1.1
		c4-1,4.7-6.3,1.1-8.3c-4-2.2-8.3,2.2-6.2,6.1c0.2,0.4,0.1,0.9-0.3,1.2c-3.8,2.8-7.9,5.3-11.4,6.7c0.4,2.7,1,5.4,2,7.9
		c0.8,2.1,3.1,3.4,5.4,2.9c0.3,0,0.5-0.1,0.8-0.2c0-0.2-0.1-0.4-0.1-0.5C277.1,27.4,278.6,24,281.6,22.5L281.6,22.5z"/>
	<path style="fill:#FABC50;" d="M314.4,27.9c0.3,0.7,0.1,1.4-0.5,1.9c-3.4,2.5-7.2,4.9-10.4,6.2c1.2,4.2,2.7,7.5,3.9,9.7
		c1.1,2.1,3.5,3,5.7,2.4c2.5-0.8,5-2,7.4-3.3c-1.1-3.5-1.7-8.2-1.9-12.8c0-0.6,0.4-1.1,0.9-1.3c4.1-0.9,4.8-6.3,1.3-8.3
		c-2.3-1.3-5.2-0.3-6.3,2C313.9,25.5,313.9,26.8,314.4,27.9L314.4,27.9z"/>
	<path style="fill:#F9AF3E;" d="M316.4,37.8c0.8-0.5,1.7-1,2.5-1.6c-0.1-1.4-0.2-2.8-0.3-4.3c0-0.6,0.4-1.1,1-1.3
		c4.1-0.9,4.8-6.3,1.2-8.3c-2.3-1.3-5.2-0.3-6.3,2c-0.6,1.2-0.6,2.4-0.1,3.6c0.3,0.7,0.1,1.4-0.5,1.8c-3.4,2.5-7.2,4.9-10.4,6.2
		c1.2,4.2,2.7,7.5,3.9,9.7c1.1,2.1,3.5,3,5.7,2.4c0.6-0.2,1.1-0.4,1.7-0.6c-0.3-0.7-0.6-1.4-0.9-2.1
		C312.7,42.6,313.7,39.3,316.4,37.8L316.4,37.8z"/>
	<path style="fill:#FABC50;" d="M267.3,7.8c0.1,4.3-2.2,6.8-7.8,19.1c-1.3,2.7-7.3,15.2-8.8,18.3L313.2,75
		c4.7-9.8,10.6-22,15.2-31.6c1.1-2.3,2.2-3.5,3.6-4.7c2.2-1.8,3.3-6.4,1.1-7.4c-1.9-0.9-4.3,1.7-4.9,4.3c-0.3,1.2-0.1,3-1.9,4.9
		c-3.5,2.6-8.3,5.6-13,7.1c-2.2,0.7-4.6-0.3-5.7-2.4c-2.1-4-5.3-11.5-5.7-21c0-0.6,0.4-1.1,1-1.3c4.2-0.9,4.9-6.6,1-8.5l0,0l0,0
		c-3.9-1.9-8,2.3-6,6.1c0.3,0.5,0.1,1.2-0.3,1.5c-7.7,5.7-15.6,7.9-20,8.7c-2.4,0.4-4.6-0.8-5.4-2.9c-1.9-4.6-2.5-10.2-2.6-14.6
		c0.2-1.4,0.9-2.8,1.9-3.8c2.3-2.1,3-6.3,1-7.3C270.2,1.2,267.3,4.9,267.3,7.8L267.3,7.8z"/>
	<path style="fill:#F9AF3E;" d="M270.4,21.4c-0.5-2.8-0.8-5.7-0.9-8.2c0.2-1.4,0.9-2.8,1.9-3.8c2.3-2.1,3-6.3,1-7.3
		c-2.2-1-5.1,2.7-5.1,5.6c0.1,4.3-2.2,6.8-7.8,19.1c-1.3,2.7-7.3,15.2-8.8,18.3l6.7,3.2c1.5-3,7.5-15.6,8.8-18.3
		C267.9,26.4,269.3,23.6,270.4,21.4L270.4,21.4z"/>
	<path style="fill:#EA527C;" d="M306,52.3c1.6,0.8,2.3,2.7,1.6,4.4c-0.8,1.6-2.8,2.3-4.4,1.5s-2.3-2.7-1.6-4.4
		C302.4,52.2,304.4,51.5,306,52.3L306,52.3z"/>
	<path style="fill:#E94374;" d="M304.5,55.5c-0.1-1.2,0.5-2.3,1.4-3c-0.5-0.2-1.1-0.4-1.7-0.3c-1.8,0.1-3.2,1.7-3,3.5
		c0.1,1.8,1.7,3.2,3.5,3c0.6,0,1.1-0.3,1.6-0.6C305.4,57.7,304.6,56.7,304.5,55.5L304.5,55.5z"/>
	<path style="fill:#EA527C;" d="M290.5,42.3c2.5,1.2,3.4,4.6,2,7.6s-4.6,4.4-7.1,3.2s-3.4-4.6-2-7.6S288,41.1,290.5,42.3L290.5,42.3
		z"/>
	<path style="fill:#E94374;" d="M289.1,53c-2.5-1.2-3.4-4.6-2-7.6c0.7-1.5,1.9-2.6,3.2-3.2c-2.5-1.1-5.6,0.4-7,3.3
		c-1.4,3-0.6,6.4,2,7.6c1.2,0.6,2.6,0.5,3.9,0C289.2,53,289.2,53,289.1,53L289.1,53z"/>
	<path style="fill:#FABC4F;" d="M313.4,74.2c-7-3.3-55.3-26.3-62.1-29.6c-1-0.5-2.2,0-2.7,1.1s-0.1,2.3,0.8,2.8
		c7,3.3,55.3,26.3,62.1,29.6c1,0.5,2.2,0,2.7-1.1S314.4,74.6,313.4,74.2L313.4,74.2z"/>
	<path style="fill:#F9AF3D;" d="M255.1,48.8c0.5-1.1,1.7-1.6,2.7-1.1c-3.1-1.5-5.5-2.6-6.6-3.1c-1-0.5-2.2,0-2.7,1.1
		s-0.1,2.3,0.8,2.8c1.2,0.6,3.5,1.7,6.6,3.1C255,51.1,254.6,49.9,255.1,48.8L255.1,48.8z"/>
	<path style="fill:#EA527C;" d="M272.5,36.6c1.6,0.8,2.3,2.7,1.6,4.4c-0.8,1.6-2.8,2.3-4.4,1.5s-2.3-2.7-1.6-4.4
		C268.9,36.5,270.9,35.8,272.5,36.6L272.5,36.6z"/>
	<path style="fill:#E94374;" d="M271.1,39.6c-0.1-1.2,0.5-2.3,1.4-3c-0.5-0.2-1.1-0.4-1.7-0.3c-1.8,0.1-3.2,1.7-3,3.5
		c0.1,1.8,1.7,3.2,3.5,3c0.6,0,1.1-0.3,1.6-0.6C271.9,41.8,271.2,40.8,271.1,39.6L271.1,39.6z"/>
	<path style="fill:#010202;" d="M306.5,56.4c-0.5,1.1-1.8,1.6-2.9,1c-1.1-0.5-1.6-1.8-1-2.9c0.5-1.1,1.8-1.6,2.9-1
		C306.6,54,307,55.4,306.5,56.4L306.5,56.4z M300.6,53.6c-1,2.2-0.1,4.8,2.1,5.8s4.8,0.1,5.9-2.1s0.1-4.8-2.1-5.8
		C304.2,50.5,301.6,51.4,300.6,53.6L300.6,53.6z"/>
	<path style="fill:#020304;" d="M291.5,49.4c-1.2,2.4-3.7,3.6-5.7,2.7c-2-0.9-2.6-3.7-1.4-6.1c1.2-2.4,3.7-3.6,5.7-2.7
		C292,44.2,292.7,46.9,291.5,49.4L291.5,49.4z M282.4,45c-1.7,3.5-0.6,7.6,2.5,9c3.1,1.5,6.9-0.2,8.6-3.7s0.6-7.6-2.5-9
		C287.9,39.8,284.1,41.5,282.4,45L282.4,45z"/>
	<g>
		<path style="fill:#010202;" d="M270.1,41.5c-1.1-0.5-1.6-1.8-1-2.9c0.5-1.1,1.8-1.6,2.9-1c1.1,0.5,1.6,1.8,1,2.9
			C272.5,41.6,271.2,42.1,270.1,41.5L270.1,41.5z M273,35.6c-2.2-1-4.8-0.1-5.9,2.1s-0.1,4.8,2.1,5.8s4.8,0.1,5.9-2.1
			C276.1,39.3,275.2,36.7,273,35.6L273,35.6z"/>
		<path style="fill:#010202;" d="M316.1,45.2c-3.3,1.4-4.4,1.6-5.8,0.9c-1.2-0.6-1.5-1.4-2-2.3c-1-1.9-2.2-4.6-3.2-7.9
			c3.3-1.4,6.5-3.2,9.4-5.3c1-0.7,1.4-2,0.9-3.2c-1.1-2.9,2.1-5.7,4.9-4.2c2.7,1.5,2.2,5.6-1,6.3c-1.1,0.2-1.9,1.3-1.8,2.4
			c0.2,3.9,0.9,7.8,2,11.6C318.4,44.2,317.2,44.7,316.1,45.2L316.1,45.2z M331.4,37.7c-1.5,1.3-2.7,2.6-3.9,5.1l-2.9,6.1
			c-0.3,0.5,0,1.2,0.5,1.5s1.2,0,1.5-0.5l2.9-6.1c2.2-4.5,3.7-3.7,5.3-6.9c1.4-2.8,0.9-5.8-1-6.7c-2.6-1.2-5.4,1.7-6.3,4.5
			c-0.6,1.7-0.1,3.2-1.7,4.8c-1.2,0.9-2.7,1.9-4.3,2.9c-1-3.5-1.6-7-1.8-10.5c0-0.1,0-0.1,0.1-0.1c5.1-1.1,6-7.9,1.6-10.3
			c-4.6-2.5-9.8,2-8,6.9c0.1,0.2,0,0.5-0.2,0.6c-2.7,1.9-5.6,3.6-8.7,4.9c-0.7-2.9-1.3-6.2-1.5-9.8c0-0.1,0.1-0.1,0.1-0.2
			c3.4-0.7,5.3-4.2,4.1-7.3c-1-2.8-4.2-4.5-7.2-3.4c-3.3,1.1-4.7,4.9-3.1,7.9v0.1c-2.7,2-5.6,3.7-8.7,5.1c-0.9-3.4-1.5-6.8-1.6-10.3
			c5-1.2,5.8-7.9,1.4-10.3c-4.8-2.7-10.3,2.5-7.7,7.5c-2.9,2.1-6,3.9-9.4,5.3c-0.2-1.8-0.3-3.6-0.4-5.1c0.1-1.1,0.7-2.2,1.6-3
			c2.8-2.5,3.6-7.7,0.7-9.1c-2.7-1.3-5.6,1.9-6.4,4.7v0.1c-0.6,2.2,0.3,3.2-1.6,7l-14.5,30.3c-1.2,0-2.3,0.7-2.9,1.9
			c-0.8,1.6-0.2,3.5,1.4,4.3l5.7,2.7c0.5,0.3,1.2,0,1.5-0.5s0-1.2-0.5-1.5l-5.7-2.7c-0.4-0.2-0.6-0.8-0.3-1.3s0.8-0.8,1.3-0.6
			l62.1,29.6c0.4,0.2,0.6,0.8,0.3,1.3c-0.3,0.5-0.8,0.8-1.3,0.6l-51.7-24.8c-0.5-0.3-1.2,0-1.5,0.5s0,1.2,0.5,1.5L311,79.1
			c1.5,0.7,3.4,0,4.2-1.6c0.6-1.2,0.4-2.5-0.3-3.4l9.4-19.5c0.3-0.5,0-1.2-0.5-1.5s-1.2,0-1.5,0.5l-9.2,19.2L252.6,44L267,14
			c2.3-4.7,0.9-5.9,2.1-8.4c0.9-1.9,2.3-2.7,2.9-2.4c0.9,0.4,0.9,3.4-1.2,5.5c-1.3,1.2-2.1,2.8-2.3,4.4c-0.1,0.6,0.3,5.6,0.6,7
			c0.4,2.7,1.1,5.5,2.1,8.1c1,2.5,3.7,4.2,6.7,3.6c0.3-0.1,0.6-0.1,1-0.2c0.6-0.1,1-0.7,0.8-1.3c-0.1-0.6-0.7-1-1.3-0.8
			c-1.2,0.2-2,0.5-3.2-0.1c-0.9-0.4-1.6-1.2-2-2c-0.9-2.1-1.4-4.5-1.8-6.8c3.7-1.5,7.3-3.5,10.5-5.8c0.8-0.6,1.1-1.7,0.6-2.6
			c-1.6-3,1.6-6.3,4.7-4.6c2.7,1.5,2.2,5.5-0.9,6.3c-1,0.2-1.7,1.2-1.7,2.2c0.2,3.7,0.8,7.4,1.8,11c-1,0.4-2.1,0.8-3.1,1.1
			c-0.6,0.2-0.9,0.8-0.7,1.4c0.2,0.6,0.8,0.9,1.4,0.7c5.1-1.7,10-4.1,14.4-7.4c0.9-0.7,1.2-1.9,0.7-2.9c-1.6-3,1.6-6.1,4.5-4.6
			c2.9,1.3,2.5,5.7-0.8,6.4c-1.1,0.2-1.9,1.2-1.9,2.4c0.3,7.6,2.5,15.2,5.9,21.5c0.8,1.5,2.2,2.6,4,3c1.7,0.4,3,0,5-0.8
			c4.6-1.8,10.7-5.8,11.5-6.7c2-2,1.9-4.3,2.1-5.1c0.5-2.6,2.6-4.2,3.4-3.8C333.8,32.6,333.4,36,331.4,37.7L331.4,37.7z"/>
	</g>
</g>
</svg>
