<?xml version="1.0" encoding="utf-8"?>
<!-- Generator: Adobe Illustrator 22.0.0, SVG Export Plug-In . SVG Version: 6.00 Build 0)  -->
<svg version="1.1" id="Calque_2_1_" xmlns="http://www.w3.org/2000/svg" xmlns:xlink="http://www.w3.org/1999/xlink" x="0px"
	 y="0px" viewBox="0 0 80.4 126.8" style="enable-background:new 0 0 80.4 126.8;" xml:space="preserve">
<text transform="matrix(1 0 0 1 -7.1288 126.454)" style="font-family:'FranklinGothic-Heavy'; font-size:130px;">K</text>
<g>
	<path style="fill:#F9AF3F;" d="M35,7.7c0.2,0.3,0.3,0.7,0,1c-2.5,2.8-5.3,5.4-7.7,7c0.7,2,1.7,4.1,2.8,5.8c1,1.5,2.9,2.2,4.7,1.4
		c1.9-0.8,4.5-2,7.3-4c-1.3-2.5-2.4-6-3.3-9.4c-0.1-0.4,0.1-0.8,0.5-1c3-1.4,2.6-5.7-0.4-6.6C35.4,0.9,32.7,5,35,7.7L35,7.7z"/>
	<path style="fill:#F59F2C;" d="M36.7,15.3c1-0.8,2-1.7,2.9-2.6c-0.3-1-0.6-2.1-0.9-3.1c-0.1-0.4,0.1-0.8,0.5-1
		c3-1.4,2.6-5.7-0.4-6.6c-3.4-1.1-6.1,3-3.8,5.7c0.2,0.3,0.3,0.7,0,1c-2.5,2.8-5.3,5.4-7.7,7c0.7,2,1.7,4.1,2.8,5.8
		c1,1.5,2.9,2.2,4.7,1.4c0.2-0.1,0.4-0.2,0.6-0.3c-0.1-0.1-0.1-0.3-0.2-0.4C34,19.9,34.7,17,36.7,15.3L36.7,15.3z"/>
	<path style="fill:#F9AF3F;" d="M63,14.4c0.3,0.5,0.3,1.1-0.1,1.5c-2.3,2.5-4.8,5-7.1,6.5c1.6,3.1,3.3,5.4,4.6,7
		c1.2,1.5,3.2,1.8,4.8,0.9c1.8-1,3.6-2.3,5.2-3.8c-1.4-2.5-2.6-6.1-3.5-9.7c-0.1-0.5,0.1-0.9,0.5-1.1c3-1.3,2.8-5.7-0.3-6.7
		c-2-0.6-4.1,0.5-4.6,2.5C62.3,12.6,62.5,13.6,63,14.4L63,14.4z"/>
	<path style="fill:#F59F2C;" d="M66.1,21.8c0.6-0.5,1.1-1.1,1.7-1.6c-0.3-1.1-0.6-2.2-0.9-3.3c-0.1-0.5,0.1-0.9,0.6-1.1
		c3-1.3,2.7-5.7-0.4-6.7c-2-0.6-4.1,0.5-4.6,2.5c-0.2,1-0.1,2,0.5,2.8c0.3,0.5,0.3,1.1-0.1,1.5c-2.3,2.5-4.8,5-7.1,6.5
		c1.6,3.1,3.3,5.4,4.6,7c1.2,1.5,3.2,1.8,4.8,0.9c0.4-0.2,0.8-0.5,1.2-0.7c-0.3-0.5-0.7-1-1.1-1.5C64,26.1,64.3,23.4,66.1,21.8
		L66.1,21.8z"/>
	<path style="fill:#FBBD51;" d="M23.3,6.1c0.7,3.3-0.6,5.6-3,16.1c-0.6,2.3-3.3,13-3.9,15.6l53.2,13.3c2.1-8.4,4.7-18.9,6.8-27
		c0.5-1.9,1.2-3.1,2.1-4.3c1.4-1.8,1.6-5.5-0.3-6c-1.6-0.4-3,2-3.1,4.1c0,1,0.4,2.4-0.7,4.1c-2.3,2.6-5.5,5.7-9,7.6
		c-1.6,0.9-3.6,0.5-4.8-0.9c-2.3-2.8-6-8.1-7.8-15.5c-0.1-0.5,0.1-1,0.6-1.1c3.1-1.3,2.8-5.9-0.6-6.8l0,0l0,0
		C49.5,4.4,47,8.4,49.1,11c0.3,0.4,0.3,0.9,0,1.2c-5.1,5.6-10.8,8.6-14.2,10c-1.7,0.9-3.7,0.3-4.7-1.2c-2.2-3.3-3.5-7.6-4.4-10.9
		C25.7,9,26,7.8,26.7,6.9c1.5-2,1.3-5.4-0.4-5.8C24.5,0.5,22.9,3.9,23.3,6.1L23.3,6.1z"/>
	<path style="fill:#F9AF3F;" d="M27.8,16.3c-0.9-2.1-1.5-4.3-2-6.2C25.7,9,26,7.8,26.7,6.9c1.5-2,1.3-5.4-0.4-5.8
		c-1.9-0.5-3.5,2.9-3.1,5.2c0.7,3.3-0.6,5.6-3,16.1c-0.6,2.3-3.3,13-3.9,15.6l5.7,1.4c0.7-2.6,3.3-13.3,3.9-15.6
		C26.7,20.6,27.3,18.2,27.8,16.3L27.8,16.3z"/>
	<path style="fill:#EA527C;" d="M60.4,34.9c1.4,0.4,2.3,1.8,1.9,3.2s-1.8,2.3-3.2,1.9c-1.4-0.4-2.3-1.8-1.9-3.2S59,34.6,60.4,34.9
		L60.4,34.9z"/>
	<path style="fill:#E94374;" d="M59.8,37.5c-0.3-0.9,0-1.9,0.6-2.5c-0.4-0.1-0.9-0.1-1.4,0c-1.4,0.4-2.2,1.8-1.8,3.2
		s1.8,2.2,3.2,1.8c0.5-0.1,0.9-0.4,1.2-0.7C60.8,39,60,38.4,59.8,37.5L59.8,37.5z"/>
	<path style="fill:#EA527C;" d="M46.8,29.4c2.1,0.5,3.3,3,2.7,5.6c-0.6,2.5-2.9,4.2-5,3.6c-2.1-0.5-3.3-3-2.7-5.6
		C42.4,30.4,44.7,28.8,46.8,29.4L46.8,29.4z"/>
	<path style="fill:#E94374;" d="M47.4,37.9c-2.1-0.5-3.3-3-2.7-5.6c0.3-1.3,1.1-2.3,2-3c-2.1-0.4-4.3,1.2-4.9,3.7s0.6,5,2.7,5.6
		c1.1,0.3,2.1,0,3-0.6C47.5,37.9,47.5,37.9,47.4,37.9L47.4,37.9z"/>
	<path style="fill:#F49627;" d="M69.6,50.6c-6-1.5-47.1-11.8-52.9-13.3c-0.8-0.2-1.7,0.4-1.9,1.3s0.3,1.8,1.1,2
		c6,1.5,47.1,11.8,52.9,13.3c0.8,0.2,1.7-0.4,1.9-1.3C70.9,51.7,70.4,50.8,69.6,50.6L69.6,50.6z"/>
	<path style="fill:#F0821D;" d="M20.4,40c0.2-0.9,1.1-1.5,1.9-1.3c-2.7-0.7-4.6-1.2-5.6-1.4c-0.8-0.2-1.7,0.4-1.9,1.3s0.3,1.8,1.1,2
		c1,0.3,3,0.7,5.6,1.4C20.6,41.9,20.2,41,20.4,40L20.4,40z"/>
	<path style="fill:#EA527C;" d="M31.9,27.8c1.4,0.4,2.3,1.8,1.9,3.2s-1.8,2.3-3.2,1.9c-1.4-0.4-2.3-1.8-1.9-3.2
		C29.1,28.3,30.5,27.4,31.9,27.8L31.9,27.8z"/>
	<path style="fill:#E94374;" d="M31.3,30.3c-0.3-0.9,0-1.9,0.6-2.5c-0.4-0.1-0.9-0.1-1.4,0c-1.4,0.4-2.2,1.8-1.8,3.2
		c0.4,1.4,1.8,2.2,3.2,1.8c0.5-0.1,0.9-0.4,1.2-0.7C32.3,31.9,31.6,31.2,31.3,30.3L31.3,30.3z"/>
	<path style="fill:#1A1413;" d="M61.5,37.9c-0.2,0.9-1.2,1.5-2.1,1.3s-1.5-1.2-1.3-2.1s1.2-1.5,2.1-1.3C61.1,36,61.7,36.9,61.5,37.9
		L61.5,37.9z M56.4,36.6c-0.5,1.9,0.7,3.8,2.5,4.2c1.9,0.5,3.8-0.7,4.2-2.5c0.5-1.9-0.7-3.8-2.5-4.2C58.8,33.6,56.9,34.7,56.4,36.6
		L56.4,36.6z"/>
	<path style="fill:#1A1413;" d="M48.7,34.7c-0.5,2.1-2.3,3.4-4,3s-2.6-2.4-2.1-4.5s2.3-3.4,4-3C48.3,30.6,49.2,32.6,48.7,34.7
		L48.7,34.7z M40.9,32.8c-0.8,3,0.7,6,3.3,6.6c2.6,0.7,5.3-1.3,6.1-4.3s-0.7-6-3.3-6.6C44.4,27.9,41.7,29.8,40.9,32.8L40.9,32.8z"/>
	<g>
		<path style="fill:#1A1413;" d="M30.9,32c-0.9-0.2-1.5-1.2-1.3-2.1s1.2-1.5,2.1-1.3c0.9,0.2,1.5,1.2,1.3,2.1
			C32.7,31.7,31.8,32.2,30.9,32L30.9,32z M32.1,26.9c-1.9-0.5-3.8,0.7-4.2,2.5c-0.5,1.9,0.7,3.8,2.5,4.2c1.9,0.5,3.8-0.7,4.2-2.5
			C35.1,29.3,34,27.4,32.1,26.9L32.1,26.9z"/>
		<path style="fill:#1A1413;" d="M67.1,27.6c-2.3,1.6-3.2,1.9-4.4,1.6c-1-0.3-1.4-0.9-1.9-1.5c-1-1.3-2.4-3.2-3.7-5.6
			c2.4-1.6,4.5-3.5,6.4-5.6c0.7-0.7,0.7-1.8,0.2-2.6c-1.3-2.1,0.7-4.8,3.1-4c2.3,0.7,2.6,4,0.3,5.1c-0.8,0.4-1.3,1.3-1,2.1
			c0.8,3,1.9,5.9,3.4,8.7C68.7,26.5,67.9,27.1,67.1,27.6L67.1,27.6z M77.8,19.4c-1,1.2-1.7,2.5-2.2,4.6l-1.3,5.2
			c-0.1,0.5,0.2,0.9,0.6,1.1c0.5,0.1,0.9-0.2,1.1-0.6l1.2-5.3c1-3.9,2.3-3.4,3-6.2c0.6-2.4-0.2-4.6-1.9-5c-2.2-0.6-3.9,2.2-4.2,4.5
			c-0.2,1.5,0.4,2.5-0.5,4c-0.8,0.9-1.8,1.9-2.9,2.9c-1.3-2.6-2.3-5.2-3-7.9v-0.1c3.8-1.6,3.4-7.1-0.4-8.3c-4-1.3-7.3,3.1-5.1,6.6
			c0.1,0.2,0.1,0.4,0,0.5c-1.8,1.9-3.8,3.7-6,5.2c-1-2.1-2-4.6-2.7-7.4c0-0.1,0-0.1,0.1-0.1C56.1,12,57,9,55.7,6.7
			c-1.2-2-4-2.8-6.1-1.5c-2.3,1.4-2.9,4.5-1.2,6.6v0.1c-1.8,2-3.7,3.7-5.9,5.3c-1.3-2.5-2.2-5.1-2.9-7.7c3.7-1.7,3.3-7-0.5-8.3
			c-4.2-1.3-7.6,3.6-4.8,7c-1.9,2.1-4.1,4-6.4,5.6c-0.5-1.4-0.8-2.7-1.1-3.9C26.7,9,27,8.1,27.6,7.3c1.7-2.4,1.6-6.6-0.9-7.2
			c-2.3-0.6-4,2.3-4.2,4.7v0.1c-0.1,1.8,0.7,2.5-0.1,5.7l-6.5,25.9c-1,0.2-1.7,0.9-2,1.9c-0.3,1.4,0.4,2.8,1.7,3.1l4.9,1.2
			c0.5,0.1,0.9-0.2,1.1-0.6c0.1-0.5-0.2-0.9-0.6-1.1l-4.9-1.2c-0.4-0.1-0.6-0.5-0.5-1s0.5-0.7,0.9-0.7l52.9,13.3
			c0.4,0.1,0.6,0.5,0.5,1s-0.5,0.7-0.9,0.7l-44.1-11c-0.5-0.1-0.9,0.2-1.1,0.6c-0.1,0.5,0.2,0.9,0.6,1.1l44.1,11
			c1.3,0.3,2.6-0.5,3-1.9c0.3-1-0.1-2-0.8-2.6l4.2-16.7c0.1-0.5-0.2-0.9-0.6-1.1c-0.5-0.1-0.9,0.2-1.1,0.6l-4.1,16.4L17.6,36.7
			L24,11.1c1-4-0.3-4.7,0.3-6.9c0.4-1.6,1.4-2.4,1.9-2.3c0.8,0.2,1.2,2.5-0.1,4.5c-0.8,1.1-1.2,2.5-1.1,3.8c0,0.5,1.2,4.3,1.6,5.4
			c0.7,2,1.7,4.1,2.9,6c1.2,1.8,3.6,2.7,5.7,1.8c0.2-0.1,0.5-0.2,0.7-0.3c0.4-0.2,0.6-0.7,0.5-1.1c-0.2-0.4-0.7-0.6-1.1-0.5
			c-0.9,0.4-1.5,0.7-2.5,0.5c-0.8-0.2-1.4-0.7-1.8-1.3c-1-1.5-1.8-3.3-2.5-5c2.7-1.8,5.1-3.9,7.2-6.2c0.5-0.6,0.6-1.5,0-2.2
			C34,5.2,36,2.2,38.6,3c2.3,0.7,2.6,4,0.3,5c-0.7,0.3-1.1,1.2-0.9,2c0.7,2.9,1.8,5.7,3.1,8.3c-0.7,0.5-1.5,0.9-2.2,1.4
			c-0.4,0.2-0.6,0.8-0.3,1.2c0.2,0.4,0.8,0.6,1.2,0.3c3.7-2.1,7.1-4.8,10-8c0.6-0.7,0.6-1.7,0-2.4c-1.7-2.1,0.3-5,2.8-4.3
			c2.5,0.5,2.8,4.1,0.4,5.1c-0.9,0.4-1.3,1.3-1.1,2.2c1.5,5.9,4.3,11.4,8,15.8c0.9,1,2.1,1.7,3.6,1.7c1.4,0,2.3-0.5,3.7-1.4
			c3.3-2.1,7.4-6.2,7.9-7c1.2-1.9,0.8-3.6,0.8-4.3c0-2.1,1.3-3.7,2-3.5C78.9,15,79.1,17.7,77.8,19.4L77.8,19.4z"/>
	</g>
</g>
</svg>
