<?xml version="1.0" encoding="utf-8"?>
<!-- Generator: Adobe Illustrator 21.0.2, SVG Export Plug-In . SVG Version: 6.00 Build 0)  -->
<svg version="1.1" id="Capa_1" xmlns="http://www.w3.org/2000/svg" xmlns:xlink="http://www.w3.org/1999/xlink" x="0px" y="0px"
	 viewBox="0 0 512 512" style="enable-background:new 0 0 512 512;" xml:space="preserve">
<style type="text/css">
	.st0{fill:#2C2F38;}
	.st1{fill:#F0C419;}
	.st2{fill:#C03A2B;}
</style>
<g>
	<path class="st0" d="M397.2,432.6h97.1c9.8,0,17.7-7.9,17.7-17.7V97.1c0-9.8-7.9-17.7-17.7-17.7H17.7C7.9,79.4,0,87.4,0,97.1v317.8
		c0,9.8,7.9,17.7,17.7,17.7L397.2,432.6L397.2,432.6z"/>
	<path class="st1" d="M512,317.8v97.1c0,9.7-7.9,17.6-17.7,17.7H17.7c-9.7,0-17.6-7.9-17.7-17.7v-97.1L512,317.8L512,317.8z"/>
	<rect y="194.2" class="st2" width="512" height="123.6"/>
</g>
</svg>
