<?xml version="1.0" standalone="no"?>
<!DOCTYPE svg PUBLIC "-//W3C//DTD SVG 20010904//EN"
 "http://www.w3.org/TR/2001/REC-SVG-20010904/DTD/svg10.dtd">
<svg version="1.0" xmlns="http://www.w3.org/2000/svg"
 width="512.000000pt" height="512.000000pt" viewBox="0 0 512.000000 512.000000"
 preserveAspectRatio="xMidYMid meet">
<metadata>
Created by potrace 1.11, written by Peter Selinger 2001-2013
</metadata>
<g transform="translate(0.000000,512.000000) scale(0.100000,-0.100000)"
fill="#000000" stroke="none">
<path d="M2160 4994 c-17 -15 -41 -45 -53 -68 -19 -36 -22 -54 -19 -153 l2
-111 -120 -484 c-67 -265 -125 -500 -131 -520 -5 -21 -16 -38 -24 -38 -23 0
-55 -50 -55 -86 l0 -34 -255 0 -255 0 0 -1655 0 -1655 475 0 475 0 0 380 0
380 168 240 c92 132 170 240 173 240 3 0 134 -279 289 -620 l283 -620 555 0
c439 0 553 3 549 13 -3 6 -235 479 -517 1050 l-511 1037 232 338 c127 185 233
339 235 341 2 2 50 -8 106 -22 99 -25 104 -25 138 -9 24 12 39 29 48 54 13 33
12 41 -5 75 l-18 38 78 314 c43 173 77 324 75 335 -3 23 -34 34 -50 18 -5 -5
-45 -150 -88 -322 -43 -171 -80 -313 -82 -316 -3 -2 -443 106 -978 241 -536
135 -974 245 -975 245 -1 0 56 235 127 523 l130 522 -6 92 c-5 72 -3 100 10
133 31 77 84 75 84 -4 0 -28 -12 -65 -35 -112 -23 -45 -35 -83 -35 -109 0 -87
89 -334 160 -444 60 -92 156 -126 240 -83 26 13 35 23 35 42 0 27 -14 29 -100
15 -63 -10 -94 16 -149 127 -25 51 -46 96 -46 100 0 4 28 28 63 54 86 66 207
184 218 213 7 18 4 34 -11 63 -37 72 -19 137 45 158 26 9 41 8 70 -4 75 -32
81 -132 10 -176 -34 -21 -45 -38 -45 -70 0 -26 54 -185 90 -265 l30 -66 -50
-31 c-52 -32 -62 -56 -34 -79 14 -11 22 -10 58 10 82 47 200 138 287 221 99
94 103 105 70 181 -24 55 -18 91 21 124 53 45 137 24 158 -39 16 -49 4 -82
-46 -123 -24 -19 -47 -46 -50 -58 -7 -28 61 -236 106 -326 48 -95 123 -216
175 -282 73 -91 154 -118 240 -78 100 45 352 268 380 335 8 20 15 66 15 104 0
87 31 157 70 157 23 0 25 -4 28 -55 3 -50 -1 -61 -38 -119 -52 -80 -62 -107
-100 -260 -28 -113 -30 -126 -15 -140 30 -30 48 -1 85 140 36 134 54 178 95
234 45 61 58 154 31 220 -16 39 -42 55 -86 55 -75 0 -131 -86 -135 -211 -2
-43 -9 -88 -15 -101 -14 -27 -100 -118 -112 -118 -11 0 -53 96 -90 204 l-30
88 37 31 c110 90 73 261 -62 296 -131 35 -242 -92 -198 -223 l17 -48 -39 -40
c-36 -37 -154 -137 -180 -152 -14 -8 -42 51 -84 178 l-29 88 44 42 c76 71 82
164 15 241 -99 112 -289 41 -289 -107 0 -28 8 -66 17 -86 l17 -35 -82 -78
c-44 -42 -95 -87 -111 -98 l-30 -22 -25 48 c-13 27 -39 93 -57 147 -29 90 -31
99 -16 108 76 42 103 152 59 235 -29 53 -113 89 -178 77 -41 -8 -98 -53 -120
-95 -19 -37 -18 -112 2 -151 16 -30 16 -31 -28 -75 -64 -67 -190 -165 -199
-156 -10 11 -39 125 -39 157 0 15 14 54 32 87 17 34 33 83 36 109 12 126 -77
201 -158 134z m1625 -359 c36 -18 55 -51 55 -97 0 -24 -11 -41 -50 -79 -27
-27 -50 -57 -50 -68 0 -33 50 -180 91 -270 22 -46 39 -85 39 -86 0 -2 -31 -26
-69 -54 -145 -108 -188 -105 -279 18 -32 42 -71 99 -86 126 l-29 48 24 19 c86
68 164 136 199 174 45 49 49 74 24 140 -14 37 -14 45 0 78 10 24 26 41 48 51
42 18 44 18 83 0z m-928 -1330 c942 -235 1033 -259 1033 -269 0 -19 -16 -36
-32 -36 -12 0 -398 95 -860 211 -664 167 -842 208 -853 199 -22 -18 -89 -3
-100 23 -8 17 -31 26 -108 45 -55 14 -101 31 -104 38 -9 23 5 46 24 40 10 -2
460 -115 1000 -251z m-310 -53 l343 -88 -336 -504 c-185 -278 -340 -509 -345
-515 -5 -5 -9 246 -9 593 0 331 1 602 3 602 1 -1 156 -40 344 -88z"/>
<path d="M2361 3983 c-46 -23 -71 -67 -71 -126 0 -40 5 -53 34 -85 33 -35 38
-37 96 -37 58 0 63 2 96 37 29 32 34 45 34 85 0 60 -29 109 -75 129 -44 18
-72 17 -114 -3z"/>
<path d="M2928 3931 c-46 -15 -87 -50 -115 -99 -24 -40 -28 -58 -28 -123 0
-65 4 -81 27 -117 35 -53 67 -73 122 -79 57 -7 105 10 145 49 101 99 100 264
-2 342 -37 29 -106 41 -149 27z"/>
<path d="M3426 3699 c-103 -81 -51 -242 79 -242 130 0 182 161 79 242 -19 15
-41 21 -79 21 -38 0 -60 -6 -79 -21z"/>
</g>
</svg>
