<?xml version="1.0" encoding="utf-8"?>
<!-- Generator: Adobe Illustrator 22.1.0, SVG Export Plug-In . SVG Version: 6.00 Build 0)  -->
<svg version="1.1" id="Calque_1" xmlns="http://www.w3.org/2000/svg" xmlns:xlink="http://www.w3.org/1999/xlink" x="0px" y="0px"
   viewBox="0 0 72.9 65.2" enable-background="new 0 0 72.9 65.2" xml:space="preserve">
<g>
  <path fill="#F9AC50" d="M28.4,9.8c0.2,0.4,0.1,0.8-0.2,1c-3.1,2.3-6.6,4.4-9.4,5.5c0.3,2.2,0.8,4.5,1.6,6.5
    c0.7,1.8,2.5,2.8,4.5,2.5c2.1-0.4,5-1.1,8.3-2.5c-0.8-2.8-1.2-6.6-1.3-10.3c0-0.4,0.3-0.8,0.7-0.9c3.3-0.8,3.9-5.2,1-6.9
    C30.3,2.9,26.6,6.5,28.4,9.8L28.4,9.8z"/>
  <path fill="#F79D40" d="M28.5,17.9c1.2-0.6,2.4-1.3,3.6-2c-0.1-1.1-0.2-2.2-0.2-3.3c0-0.4,0.3-0.8,0.7-0.9c3.3-0.8,3.9-5.2,1-6.9
    c-3.3-1.8-6.9,1.7-5.1,5c0.2,0.4,0.1,0.8-0.2,1c-3.1,2.3-6.6,4.4-9.4,5.5c0.3,2.2,0.8,4.5,1.6,6.5c0.7,1.8,2.5,2.8,4.5,2.5
    c0.2,0,0.4-0.1,0.7-0.1c0-0.1-0.1-0.3-0.1-0.4C24.8,22,26,19.2,28.5,17.9L28.5,17.9z"/>
  <path fill="#F9AC50" d="M55.5,22.6c0.2,0.6,0,1.2-0.5,1.5c-2.9,2-6,4-8.6,5.1c1,3.5,2.2,6.2,3.2,8.1c0.9,1.7,2.9,2.5,4.7,2
    c2.1-0.6,4.2-1.6,6.1-2.7c-0.9-2.9-1.3-6.8-1.5-10.6c0-0.5,0.3-0.9,0.8-1c3.4-0.7,4-5.2,1.1-6.9c-1.9-1.1-4.3-0.3-5.2,1.6
    C55.2,20.6,55.2,21.7,55.5,22.6L55.5,22.6z"/>
  <path fill="#F79D40" d="M57.1,30.8c0.7-0.4,1.4-0.8,2.1-1.3C59.1,28.3,59,27.1,59,26c0-0.5,0.3-0.9,0.8-1c3.4-0.7,4-5.2,1.1-6.9
    c-1.9-1.1-4.3-0.3-5.2,1.6c-0.5,1-0.5,2-0.1,2.9c0.2,0.6,0,1.2-0.4,1.5c-2.9,2-6,4-8.6,5.1c1,3.5,2.2,6.2,3.2,8.1
    c0.9,1.7,2.9,2.5,4.7,2c0.5-0.1,0.9-0.3,1.4-0.5c-0.2-0.5-0.5-1.1-0.8-1.8C54,34.7,54.9,32.1,57.1,30.8L57.1,30.8z"/>
  <path fill="#FBBA5E" d="M16.8,5.7c0,3.6-1.8,5.6-6.6,15.8C9.2,23.6,4.2,34,2.9,36.5l51.4,25c3.9-8.1,8.9-18.2,12.7-26.1
    c0.9-1.9,1.8-2.9,3-3.9c1.8-1.5,2.8-5.3,1-6.1c-1.5-0.8-3.5,1.4-4.1,3.5c-0.2,1-0.1,2.5-1.6,4c-2.9,2.1-6.9,4.6-10.8,5.8
    c-1.8,0.5-3.8-0.2-4.7-2c-1.7-3.3-4.3-9.5-4.6-17.4c0-0.5,0.3-0.9,0.8-1c3.5-0.7,4.1-5.5,0.9-7c0,0,0,0,0,0c0,0,0,0,0,0
    c-3.2-1.6-6.6,1.9-5,5c0.2,0.4,0.1,1-0.3,1.3c-6.4,4.7-12.9,6.5-16.6,7.1c-1.9,0.4-3.8-0.7-4.5-2.5c-1.5-3.8-2-8.5-2.1-12.1
    c0.1-1.2,0.7-2.3,1.6-3.1c1.9-1.7,2.5-5.2,0.8-6C19.3,0.2,16.8,3.3,16.8,5.7L16.8,5.7z"/>
  <path fill="#F9AC50" d="M19.2,16.9c-0.4-2.4-0.6-4.7-0.7-6.8c0.1-1.2,0.7-2.3,1.6-3.1c1.9-1.7,2.5-5.2,0.8-6
    c-1.8-0.9-4.2,2.2-4.2,4.6c0,3.6-1.8,5.6-6.6,15.8C9.2,23.6,4.2,34,2.9,36.5l5.5,2.7c1.2-2.5,6.3-12.9,7.3-15.1
    C17.2,21.1,18.3,18.8,19.2,16.9L19.2,16.9z"/>
  <path fill="#EF5680" d="M48.4,42.9c1.4,0.7,1.9,2.3,1.3,3.6c-0.7,1.4-2.3,1.9-3.6,1.3c-1.4-0.7-1.9-2.3-1.3-3.6
    C45.5,42.8,47.1,42.3,48.4,42.9L48.4,42.9z"/>
  <path fill="#EE4879" d="M47.2,45.4c-0.1-1,0.4-1.9,1.2-2.4c-0.4-0.2-0.9-0.3-1.4-0.3c-1.5,0.1-2.6,1.4-2.5,2.9
    c0.1,1.5,1.4,2.6,2.9,2.5c0.5,0,0.9-0.2,1.3-0.5C47.9,47.2,47.3,46.4,47.2,45.4L47.2,45.4z"/>
  <path fill="#EF5680" d="M35.8,34.4c2.1,1,2.8,3.8,1.6,6.3c-1.2,2.5-3.8,3.6-5.9,2.6c-2.1-1-2.8-3.8-1.6-6.3
    C31.1,34.5,33.7,33.4,35.8,34.4L35.8,34.4z"/>
  <path fill="#EE4879" d="M34.6,43.2c-2.1-1-2.8-3.8-1.6-6.3c0.6-1.2,1.6-2.2,2.7-2.6c-2-0.9-4.6,0.3-5.8,2.7
    c-1.2,2.5-0.5,5.3,1.6,6.3c1,0.5,2.2,0.5,3.2,0C34.6,43.2,34.6,43.2,34.6,43.2L34.6,43.2z"/>
  <path fill="#F6953C" d="M54.4,60.9C48.7,58.1,9,38.8,3.4,36c-0.8-0.4-1.8,0-2.3,0.9c-0.4,0.9-0.1,1.9,0.7,2.3
    c5.8,2.8,45.4,22.1,51.1,24.9c0.8,0.4,1.8,0,2.3-0.9C55.6,62.3,55.3,61.3,54.4,60.9L54.4,60.9z"/>
  <path fill="#F48433" d="M6.5,39.6C7,38.7,8,38.3,8.8,38.7c-2.6-1.2-4.5-2.2-5.4-2.6c-0.8-0.4-1.8,0-2.3,0.9
    c-0.4,0.9-0.1,1.9,0.7,2.3c1,0.5,2.9,1.4,5.4,2.6C6.4,41.5,6.1,40.5,6.5,39.6L6.5,39.6z"/>
  <path fill="#EF5680" d="M20.9,29.6c1.4,0.7,1.9,2.3,1.3,3.6c-0.7,1.4-2.3,1.9-3.6,1.3c-1.4-0.7-1.9-2.3-1.3-3.6
    C17.9,29.5,19.6,28.9,20.9,29.6L20.9,29.6z"/>
  <path fill="#EE4879" d="M19.7,32c-0.1-1,0.4-1.9,1.2-2.4c-0.4-0.2-0.9-0.3-1.4-0.3c-1.5,0.1-2.6,1.4-2.5,2.9
    c0.1,1.5,1.4,2.6,2.9,2.5c0.5,0,0.9-0.2,1.3-0.5C20.4,33.8,19.8,33,19.7,32L19.7,32z"/>
  <path fill="#0B040C" d="M48.9,46.2c-0.4,0.9-1.5,1.3-2.4,0.8c-0.9-0.4-1.3-1.5-0.8-2.4c0.4-0.9,1.5-1.3,2.4-0.8
    C48.9,44.2,49.3,45.3,48.9,46.2L48.9,46.2z M44,43.8c-0.9,1.8-0.1,4,1.7,4.9c1.8,0.9,4,0.1,4.9-1.7s0.1-4-1.7-4.9S44.9,42,44,43.8
    L44,43.8z"/>
  <path fill="#0B040C" d="M36.5,40.2c-1,2-3.1,3-4.7,2.2c-1.6-0.8-2.1-3.1-1.1-5.1c1-2,3.1-3,4.7-2.2C37,36,37.5,38.2,36.5,40.2
    L36.5,40.2z M29.1,36.6c-1.4,2.9-0.5,6.3,2,7.5c2.5,1.2,5.7-0.1,7.1-3.1c1.4-2.9,0.5-6.3-2-7.5C33.7,32.3,30.5,33.7,29.1,36.6
    L29.1,36.6z"/>
  <g>
    <path fill="#0B040C" d="M18.9,33.6c-0.9-0.4-1.3-1.5-0.8-2.4c0.4-0.9,1.5-1.3,2.4-0.8c0.9,0.4,1.3,1.5,0.8,2.4
      C20.9,33.7,19.8,34.1,18.9,33.6L18.9,33.6z M21.3,28.7c-1.8-0.9-4-0.1-4.9,1.7c-0.9,1.8-0.1,4,1.7,4.9c1.8,0.9,4,0.1,4.9-1.7
      S23.1,29.6,21.3,28.7L21.3,28.7z"/>
    <path fill="#0B040C" d="M56.8,37c-2.7,1.2-3.7,1.3-4.8,0.7c-0.9-0.5-1.3-1.2-1.6-1.9c-0.8-1.6-1.8-3.8-2.6-6.6
      c2.8-1.2,5.4-2.6,7.8-4.3c0.8-0.6,1.1-1.7,0.8-2.6c-0.9-2.4,1.7-4.7,4-3.4c2.2,1.3,1.7,4.7-0.8,5.2c-0.9,0.2-1.6,1-1.5,2
      c0.1,3.2,0.7,6.4,1.6,9.6C58.7,36.1,57.8,36.6,56.8,37L56.8,37z M69.5,30.8c-1.3,1.1-2.3,2.2-3.3,4.2l-2.5,5.1
      c-0.2,0.5,0,1,0.4,1.2s1,0,1.2-0.4l2.5-5.1c1.8-3.7,3.1-3,4.4-5.7c1.1-2.3,0.8-4.8-0.8-5.5c-2.1-1-4.5,1.4-5.2,3.7
      c-0.5,1.4-0.1,2.6-1.4,4c-1,0.7-2.2,1.6-3.5,2.4c-0.8-2.9-1.3-5.8-1.4-8.7c0,0,0-0.1,0.1-0.1c4.2-0.9,5-6.5,1.3-8.6
      c-3.8-2.1-8.1,1.6-6.6,5.7c0.1,0.2,0,0.4-0.1,0.5c-2.2,1.6-4.6,2.9-7.2,4c-0.6-2.4-1-5.1-1.2-8.1c0-0.1,0.1-0.1,0.1-0.1
      c2.8-0.6,4.4-3.4,3.5-6.1c-0.8-2.3-3.5-3.7-5.9-2.9c-2.7,0.9-3.9,4-2.6,6.5c0,0,0,0.1,0,0.1c-2.2,1.6-4.6,3-7.2,4.1
      c-0.7-2.8-1.2-5.7-1.3-8.5c4.1-1,4.8-6.5,1.2-8.5c-4-2.2-8.5,2-6.4,6.1c-2.4,1.7-5,3.2-7.8,4.3c-0.2-1.5-0.3-3-0.3-4.2
      c0.1-0.9,0.6-1.8,1.3-2.5c2.3-2.1,3-6.3,0.6-7.5c-2.2-1.1-4.6,1.5-5.3,3.9l0,0.1C15.6,6,16.4,6.8,14.8,10L2.7,35
      c-1,0-1.9,0.6-2.4,1.6c-0.7,1.3-0.2,2.9,1.1,3.5l4.7,2.3c0.5,0.2,1,0,1.2-0.4c0.2-0.5,0-1-0.4-1.2l-4.7-2.3
      c-0.4-0.2-0.5-0.7-0.3-1.1c0.2-0.4,0.7-0.7,1-0.5L54,61.7c0.4,0.2,0.5,0.7,0.3,1.1c-0.2,0.4-0.7,0.7-1,0.5L10.7,42.6
      c-0.5-0.2-1,0-1.2,0.4c-0.2,0.5,0,1,0.4,1.2l42.6,20.7c1.3,0.6,2.8,0,3.5-1.3c0.5-1,0.3-2.1-0.2-2.8l7.8-16.1c0.2-0.5,0-1-0.4-1.2
      s-1,0-1.2,0.4l-7.7,15.9L4.4,35.5l12.1-24.8c1.9-3.9,0.8-4.9,1.8-7c0.8-1.5,1.9-2.2,2.4-1.9c0.7,0.4,0.7,2.8-1.1,4.5
      c-1.1,1-1.7,2.3-1.9,3.7c-0.1,0.5,0.3,4.7,0.5,5.8c0.3,2.2,0.8,4.6,1.7,6.7c0.8,2.1,3.1,3.5,5.5,3c0.3,0,0.5-0.1,0.8-0.2
      c0.5-0.1,0.8-0.6,0.7-1.1c-0.1-0.5-0.6-0.8-1.1-0.7c-1,0.2-1.7,0.4-2.6-0.1c-0.8-0.4-1.3-1-1.6-1.7c-0.7-1.8-1.2-3.7-1.5-5.6
      c3.1-1.3,6-2.9,8.7-4.8c0.7-0.5,0.9-1.4,0.5-2.2c-1.3-2.5,1.4-5.2,3.9-3.8c2.2,1.2,1.8,4.6-0.8,5.2c-0.8,0.2-1.4,1-1.4,1.8
      c0.1,3.1,0.6,6.1,1.4,9.2c-0.8,0.3-1.7,0.6-2.6,0.9c-0.5,0.2-0.7,0.7-0.6,1.1c0.2,0.5,0.7,0.7,1.1,0.6c4.2-1.3,8.3-3.4,12-6
      c0.8-0.6,1-1.6,0.6-2.4c-1.3-2.5,1.4-5,3.8-3.8c2.4,1.1,2,4.8-0.7,5.3c-0.9,0.2-1.6,1-1.6,2c0.2,6.3,2,12.6,4.7,17.8
      c0.7,1.2,1.8,2.2,3.3,2.5c1.4,0.3,2.5,0,4.1-0.6c3.8-1.4,8.8-4.8,9.5-5.5c1.6-1.6,1.6-3.5,1.8-4.2c0.4-2.2,2.2-3.5,2.8-3.2
      C71.5,26.6,71.2,29.4,69.5,30.8L69.5,30.8z"/>
  </g>
</g>
</svg> 
